<?xml version="1.0" encoding="UTF-8" standalone="no"?>
<svg
   xmlns:dc="http://purl.org/dc/elements/1.1/"
   xmlns:cc="http://creativecommons.org/ns#"
   xmlns:rdf="http://www.w3.org/1999/02/22-rdf-syntax-ns#"
   xmlns:svg="http://www.w3.org/2000/svg"
   xmlns="http://www.w3.org/2000/svg"
   xmlns:sodipodi="http://sodipodi.sourceforge.net/DTD/sodipodi-0.dtd"
   xmlns:inkscape="http://www.inkscape.org/namespaces/inkscape"
   inkscape:version="1.0 (4035a4fb49, 2020-05-01)"
   sodipodi:docname="ico-search.svg"
   id="svg53"
   enable-background="new 0 0 26.1 26.1"
   viewBox="0 0 26.1 26.1"
   version="1.1">
  <metadata
     id="metadata59">
    <rdf:RDF>
      <cc:Work
         rdf:about="">
        <dc:format>image/svg+xml</dc:format>
        <dc:type
           rdf:resource="http://purl.org/dc/dcmitype/StillImage" />
      </cc:Work>
    </rdf:RDF>
  </metadata>
  <defs
     id="defs57" />
  <sodipodi:namedview
     inkscape:current-layer="svg53"
     inkscape:window-maximized="1"
     inkscape:window-y="-8"
     inkscape:window-x="-8"
     inkscape:cy="11.10948"
     inkscape:cx="13.05"
     inkscape:zoom="20.613027"
     showgrid="false"
     id="namedview55"
     inkscape:window-height="705"
     inkscape:window-width="1366"
     inkscape:pageshadow="2"
     inkscape:pageopacity="0"
     guidetolerance="10"
     gridtolerance="10"
     objecttolerance="10"
     borderopacity="1"
     bordercolor="#666666"
     pagecolor="#ffffff" />
  <path
     style="fill:#ffffff"
     id="path51"
     d="m25.806,22.9l-5.4-5.4c-0.2-0.2-0.2-0.4-0.1-0.6 1.1-1.7 1.7-3.7 1.7-5.9 0-6.1-4.9-11-11-11s-11,4.9-11,11 4.9,11 11,11c2.2,0 4.2-0.6 5.9-1.7 0.2-0.1 0.5-0.1 0.6,0.1l5.4,5.4c0.4,0.4 1,0.4 1.4,0l1.4-1.4c0.5-0.5 0.5-1.1 0.1-1.5zm-14.7-4.9c-3.9,0-7-3.1-7-7s3.1-7 7-7 7,3.1 7,7-3.1,7-7,7z" />
</svg>
